<svg xmlns="http://www.w3.org/2000/svg" xmlns:xlink="http://www.w3.org/1999/xlink" width="100%" height="100%" version="1.1" viewBox="0 0 400 500" xml:space="preserve" style="fill-rule:evenodd;clip-rule:evenodd;stroke-linejoin:round;stroke-miterlimit:2"><path id="inner" d="M369.259,461.074C372.421,467.275 372.131,474.674 368.493,480.609C364.856,486.544 358.395,490.161 351.434,490.158C281.717,490.133 118.985,490.075 48.865,490.05C41.86,490.048 35.367,486.381 31.748,480.384C28.129,474.386 27.911,466.933 31.174,460.735C66.451,393.714 150,234.984 150,234.984L150,40L255,40L254,235C254,235 335.14,394.151 369.259,461.074Z" style="fill:url(#_Radial1)"/><clipPath id="_clip2"><path d="M369.259,461.074C372.421,467.275 372.131,474.674 368.493,480.609C364.856,486.544 358.395,490.161 351.434,490.158C281.717,490.133 118.985,490.075 48.865,490.05C41.86,490.048 35.367,486.381 31.748,480.384C28.129,474.386 27.911,466.933 31.174,460.735C66.451,393.714 150,234.984 150,234.984L150,40L255,40L254,235C254,235 335.14,394.151 369.259,461.074Z"/></clipPath><g clip-path="url(#_clip2)"><path d="M170.955,77L194,77L194,245L81,467.049C81,467.049 48.173,471.562 56.009,459C64.639,445.166 171,241 171,241L170.955,77Z" style="fill:#fff;fill-opacity:.35"/></g><path d="M369.259,461.074C372.421,467.275 372.131,474.674 368.493,480.609C364.856,486.544 358.395,490.161 351.434,490.158C281.717,490.133 118.985,490.075 48.865,490.05C41.86,490.048 35.367,486.381 31.748,480.384C28.129,474.386 27.911,466.933 31.174,460.735C66.451,393.714 150,234.984 150,234.984L150,40L255,40L254,235C254,235 335.14,394.151 369.259,461.074ZM244.949,50L160,50L160,234.984C160,236.607 159.605,238.206 158.849,239.642C158.849,239.642 75.3,398.371 40.023,465.392C38.392,468.492 38.501,472.218 40.31,475.217C42.12,478.215 45.366,480.049 48.868,480.05C118.989,480.075 281.721,480.133 351.438,480.158C354.918,480.159 358.149,478.351 359.967,475.384C361.786,472.416 361.931,468.717 360.35,465.616L245.091,239.542C244.366,238.12 243.992,236.545 244,234.949L244.949,50Z" style="fill:#fff"/><defs><radialGradient id="_Radial1" cx="0" cy="0" r="1" gradientTransform="matrix(229.791,1.35475,-1.98413,336.545,205.755,161.944)" gradientUnits="userSpaceOnUse"><stop offset="0" style="stop-color:white;stop-opacity:.2"/><stop offset=".43" style="stop-color:white;stop-opacity:.34"/><stop offset="1" style="stop-color:white;stop-opacity:.65"/></radialGradient></defs></svg>