<svg xmlns="http://www.w3.org/2000/svg" xmlns:xlink="http://www.w3.org/1999/xlink" width="100%" height="100%" version="1.1" viewBox="0 0 400 500" xml:space="preserve" style="fill-rule:evenodd;clip-rule:evenodd;stroke-linejoin:round;stroke-miterlimit:2"><path id="shape" d="M350.968,500L49.691,500C39.182,500 29.44,494.501 24.009,485.505C18.577,476.509 18.249,465.327 23.143,456.028C62.915,380.462 140,234 140,234L140,30L264,30L264,234C264,234 339.092,380.871 377.679,456.343C382.434,465.643 382.01,476.747 376.558,485.657C371.107,494.567 361.413,500 350.968,500ZM254,40L150,40L150,234C149.95,235.635 149.616,237.2 148.849,238.657C109.902,312.67 70.942,386.674 31.993,460.685C30.891,462.779 30.165,465.067 29.859,467.413C28.302,479.353 37.815,489.806 49.691,490L350.968,490C357.931,490 364.394,486.378 368.028,480.438C371.662,474.498 371.945,467.096 368.775,460.895C330.188,385.423 255.096,238.552 255.096,238.552C254.376,237.143 254,235.583 254,234L254,40Z"/></svg>